<?xml version="1.0" standalone="no"?>
<!DOCTYPE svg PUBLIC "-//W3C//DTD SVG 20010904//EN"
 "http://www.w3.org/TR/2001/REC-SVG-20010904/DTD/svg10.dtd">
<svg version="1.0" xmlns="http://www.w3.org/2000/svg"
 viewBox="0 0 1080.000000 1080.000000"
 preserveAspectRatio="xMidYMid meet">

<g transform="translate(0.000000,1080.000000) scale(0.100000,-0.100000)"
fill="#f01616" stroke="none">
<path d="M5353 7446 c-98 -31 -155 -107 -156 -209 -1 -164 147 -266 314 -216
200 60 196 365 -5 424 -60 18 -97 18 -153 1z m158 -62 c34 -17 77 -68 85 -100
12 -48 -2 -122 -29 -158 -35 -45 -101 -71 -164 -62 -141 19 -199 189 -98 290
53 53 137 65 206 30z"/>
<path d="M5800 7357 c0 -46 -3 -151 -6 -234 l-7 -150 31 -11 31 -11 108 132
c59 72 114 138 121 146 10 13 11 -20 6 -174 l-7 -190 31 -11 30 -12 147 181
c124 154 144 182 128 188 -10 4 -23 8 -29 8 -5 1 -63 -65 -128 -145 -65 -80
-119 -144 -120 -142 -2 2 0 86 4 188 3 102 4 188 1 191 -3 4 -16 10 -27 13
-18 5 -38 -14 -130 -126 -60 -72 -115 -139 -122 -147 -11 -13 -12 17 -7 174
l7 191 -27 12 c-14 7 -28 12 -30 12 -3 0 -5 -38 -5 -83z"/>
<path d="M5003 7422 c-14 -2 -23 -10 -23 -20 0 -9 18 -80 39 -157 22 -77 38
-141 36 -143 -2 -2 -77 49 -166 113 -90 65 -170 120 -178 122 -9 2 -22 -1 -30
-6 -11 -7 -3 -46 44 -218 56 -204 58 -210 81 -205 14 2 26 8 29 12 2 4 -14 71
-36 149 -22 79 -38 148 -37 153 2 5 79 -45 172 -112 141 -102 172 -120 191
-113 l23 8 -57 207 c-32 114 -59 209 -62 211 -2 1 -14 1 -26 -1z"/>
<path d="M4298 7130 c-108 -32 -192 -145 -158 -211 40 -76 90 -87 208 -44 80
29 114 31 136 9 52 -52 -36 -151 -151 -170 -35 -5 -39 -9 -35 -30 5 -28 20
-30 84 -10 94 28 178 111 178 176 0 29 -26 76 -52 94 -33 23 -73 20 -168 -14
-47 -16 -91 -30 -97 -30 -22 0 -53 39 -53 67 0 39 66 98 128 113 43 12 48 16
44 36 -5 25 -18 28 -64 14z"/>
<path d="M3884 6790 c-55 -61 -100 -115 -102 -119 -3 -9 306 -291 319 -291 6
0 166 172 198 213 11 14 11 20 1 32 -7 8 -16 15 -20 15 -4 0 -45 -42 -91 -94
l-83 -94 -53 45 c-29 25 -53 48 -53 52 0 3 32 41 71 85 68 76 70 79 52 98 -17
19 -18 19 -34 -1 -9 -11 -41 -47 -72 -81 -62 -69 -65 -69 -126 -6 l-34 35 59
66 c108 121 107 119 85 139 -18 16 -23 12 -117 -94z"/>
<path d="M6790 6604 c-91 -69 -168 -128 -172 -132 -4 -4 1 -17 10 -30 l18 -23
66 51 c37 27 71 50 75 50 5 0 37 -38 72 -85 56 -76 64 -83 82 -72 10 6 19 15
19 18 0 3 -29 44 -65 92 l-64 85 52 39 c29 22 57 43 64 46 8 5 38 -26 84 -88
71 -94 87 -107 107 -82 8 9 -13 43 -79 132 -50 66 -93 121 -97 122 -4 1 -81
-55 -172 -123z"/>
<path d="M6416 6701 c-32 -36 3 -83 45 -61 25 14 25 56 0 70 -25 13 -25 13
-45 -9z"/>
<path d="M3645 6466 c-42 -44 -75 -116 -75 -165 0 -38 33 -86 69 -100 53 -22
95 -7 159 58 79 79 103 94 135 82 55 -21 44 -113 -21 -179 -20 -22 -45 -43
-56 -49 -15 -9 -16 -14 -6 -32 11 -22 12 -22 38 -5 110 69 165 210 112 284
-26 37 -77 54 -115 40 -16 -6 -62 -42 -102 -80 -76 -73 -107 -85 -137 -55 -8
8 -17 24 -21 35 -9 30 30 111 72 147 32 27 35 33 24 47 -20 24 -31 20 -76 -28z"/>
<path d="M7013 6267 c-106 -45 -193 -87 -193 -93 0 -5 6 -18 13 -28 12 -16 16
-15 71 9 32 14 59 25 60 23 2 -2 14 -31 29 -66 l27 -62 -44 -71 c-39 -62 -43
-74 -34 -95 15 -31 20 -30 43 9 10 17 29 49 42 69 l23 38 33 -20 c91 -56 214
3 225 108 3 40 -3 66 -39 155 -23 59 -47 107 -53 107 -6 -1 -98 -38 -203 -83z
m241 -133 c4 -17 2 -43 -3 -57 -21 -56 -109 -79 -152 -41 -26 22 -91 156 -81
166 4 3 45 22 92 42 l85 35 27 -57 c14 -31 29 -71 32 -88z"/>
<path d="M3476 6097 c-53 -69 -72 -178 -41 -236 14 -29 68 -61 102 -61 34 0
78 37 113 95 67 112 108 137 150 93 17 -18 21 -32 17 -63 -5 -52 -32 -109 -68
-145 -27 -26 -27 -28 -10 -44 17 -15 20 -15 44 4 64 50 104 196 72 263 -17 35
-64 67 -102 67 -36 0 -80 -38 -127 -112 -58 -90 -77 -104 -117 -87 -52 21 -52
97 1 182 17 27 29 50 28 51 -2 1 -10 7 -20 14 -14 11 -20 8 -42 -21z"/>
<path d="M7177 5835 c-109 -18 -201 -36 -204 -39 -3 -3 5 -73 18 -156 l24
-150 28 0 c22 0 27 4 23 18 -11 38 -39 233 -34 237 3 3 33 10 68 17 47 8 64 8
69 -1 4 -7 13 -49 20 -94 17 -113 17 -115 45 -110 l23 5 -18 106 c-10 58 -17
107 -15 109 6 7 127 25 132 20 3 -2 12 -47 20 -98 23 -143 21 -139 49 -139 14
0 25 3 25 8 0 4 -11 72 -25 152 -14 80 -25 146 -25 148 0 4 -23 1 -223 -33z"/>
<path d="M3575 5640 c-110 -43 -208 -83 -217 -89 -10 -6 -18 -22 -18 -36 0
-21 19 -34 148 -101 81 -42 167 -88 192 -103 l45 -27 17 -89 c29 -155 47 -136
-169 -174 -103 -18 -188 -33 -189 -34 -1 -1 0 -15 3 -30 5 -23 10 -28 27 -24
11 3 108 20 214 38 177 30 192 34 192 53 0 12 -11 84 -25 160 -14 77 -25 141
-25 143 0 1 -22 14 -50 28 l-50 25 1 68 c1 37 4 91 7 121 7 53 7 53 56 72 27
10 53 24 58 31 12 20 10 48 -4 47 -7 0 -103 -36 -213 -79z m51 -132 c-3 -50
-8 -93 -10 -95 -2 -2 -50 19 -106 47 -56 28 -99 54 -96 58 7 6 194 79 210 81
5 1 6 -38 2 -91z"/>
<path d="M7015 5420 c-1 -3 -6 -54 -9 -115 -4 -60 -9 -129 -13 -152 -5 -41 -4
-43 20 -43 28 0 37 20 37 86 0 23 3 69 6 103 l7 61 42 0 c23 0 57 -3 74 -6
l32 -7 -6 -61 c-3 -33 -8 -82 -11 -108 -4 -46 -4 -48 20 -48 28 0 31 10 40
139 3 40 7 75 9 77 2 2 34 1 71 -3 l67 -6 -5 -51 c-3 -28 -8 -84 -11 -123 -6
-72 -6 -73 18 -73 30 0 33 14 43 186 l6 120 -217 15 c-119 8 -218 12 -220 9z"/>
<path d="M3765 4910 c-5 -14 5 -30 38 -62 123 -118 53 -301 -115 -302 -97 0
-176 92 -166 195 5 45 3 52 -16 59 -29 10 -36 -4 -36 -75 1 -136 97 -237 225
-238 95 0 187 63 215 148 20 60 9 146 -26 202 -26 42 -83 93 -105 93 -4 0 -10
-9 -14 -20z"/>
<path d="M6891 4794 c-6 -15 -10 -28 -9 -29 2 -1 80 -32 173 -69 94 -37 173
-71 177 -75 5 -4 -4 -37 -19 -74 -14 -37 -24 -69 -22 -71 2 -2 13 -6 23 -8 16
-2 28 17 71 122 93 226 87 206 60 218 -23 10 -25 8 -51 -59 -15 -38 -31 -69
-35 -69 -4 0 -85 32 -180 70 -95 39 -173 70 -174 70 -1 0 -7 -12 -14 -26z"/>
<path d="M6791 4578 c-14 -23 -5 -34 62 -75 15 -10 27 -21 27 -26 0 -4 -17
-33 -37 -62 l-38 -54 -85 -1 -85 -1 -32 -44 c-32 -43 -32 -44 -18 -86 25 -70
29 -64 -136 -197 l-28 -23 -51 26 c-49 25 -53 25 -77 10 -14 -9 -21 -21 -17
-25 13 -12 416 -200 429 -200 7 0 19 8 28 18 16 17 13 32 -42 224 -32 113 -62
215 -66 227 -6 20 -3 21 74 21 l81 0 0 -44 c0 -113 138 -185 229 -119 23 17
161 191 160 203 0 6 -332 238 -351 245 -7 3 -19 -5 -27 -17z m219 -186 c36
-25 69 -49 74 -53 11 -9 -68 -123 -100 -144 -40 -26 -82 -19 -121 20 -31 31
-35 40 -30 70 7 41 87 166 102 157 5 -3 39 -26 75 -50z m-354 -400 c18 -58 32
-107 31 -108 -1 -1 -51 22 -111 50 l-108 51 73 62 c41 34 76 60 78 57 3 -3 20
-53 37 -112z"/>
<path d="M4040 4368 c-30 -29 -101 -97 -158 -151 l-104 -100 21 -20 20 -21
122 115 c119 111 122 113 117 79 -3 -19 -16 -115 -29 -213 -21 -165 -22 -179
-6 -194 18 -19 23 -15 228 183 l106 103 -20 20 -20 20 -119 -111 c-82 -77
-118 -105 -118 -92 0 11 11 102 25 204 21 149 23 189 14 208 -7 12 -15 22 -18
22 -3 0 -31 -24 -61 -52z"/>
<path d="M4315 3919 l-128 -182 24 -18 c13 -10 24 -17 25 -16 28 36 254 360
252 361 -2 1 -12 9 -24 19 -21 17 -22 15 -149 -164z"/>
<path d="M6196 3997 c-16 -12 -9 -28 91 -200 59 -103 112 -187 118 -187 5 0
18 6 27 13 15 12 6 31 -90 200 -59 102 -112 187 -118 187 -5 0 -18 -6 -28 -13z"/>
<path d="M4566 3936 c-147 -55 -190 -267 -74 -372 73 -68 193 -88 273 -47 136
71 166 251 59 357 -65 64 -178 92 -258 62z m129 -47 c55 -16 92 -44 115 -89
26 -50 25 -103 -1 -157 -35 -73 -106 -105 -194 -89 -43 8 -103 59 -121 103
-38 91 17 204 114 233 37 11 42 11 87 -1z"/>
<path d="M5940 3881 c-120 -46 -140 -61 -122 -88 6 -10 33 -3 112 27 57 23
108 39 115 37 6 -3 40 -82 75 -176 65 -171 74 -184 109 -162 15 10 17 4 -99
304 -23 59 -47 107 -53 106 -7 0 -68 -22 -137 -48z"/>
<path d="M5038 3790 c-14 -10 -30 -32 -37 -47 -16 -40 -70 -337 -63 -344 6 -6
177 -39 200 -39 5 0 12 11 14 24 5 22 1 24 -69 36 -40 7 -76 16 -78 20 -5 9
31 220 46 268 20 60 91 72 140 22 25 -24 34 -28 50 -20 10 6 19 14 19 18 0 11
-50 57 -77 71 -36 18 -117 14 -145 -9z"/>
<path d="M5581 3786 c-16 -19 -11 -46 12 -60 25 -16 52 4 52 40 0 24 -5 30
-26 32 -14 2 -31 -4 -38 -12z"/>
</g>
</svg>
